<?xml version="1.0" encoding="UTF-8" standalone="no"?>
<!-- Created with Inkscape (http://www.inkscape.org/) -->

<svg
   version="1.1"
   id="svg1492"
   width="1701.999"
   height="828.88092"
   viewBox="0 0 1701.9991 828.88092"
   sodipodi:docname="2b.svg"
   inkscape:version="1.2.2 (732a01da63, 2022-12-09, custom)"
   xmlns:inkscape="http://www.inkscape.org/namespaces/inkscape"
   xmlns:sodipodi="http://sodipodi.sourceforge.net/DTD/sodipodi-0.dtd"
   xmlns="http://www.w3.org/2000/svg"
   xmlns:svg="http://www.w3.org/2000/svg">
  <defs
     id="defs1496" />
  <sodipodi:namedview
     id="namedview1494"
     pagecolor="#ffffff"
     bordercolor="#000000"
     borderopacity="0.25"
     inkscape:showpageshadow="2"
     inkscape:pageopacity="0.0"
     inkscape:pagecheckerboard="0"
     inkscape:deskcolor="#d1d1d1"
     showgrid="false"
     inkscape:zoom="0.68375752"
     inkscape:cx="817.54129"
     inkscape:cy="424.85822"
     inkscape:window-width="1846"
     inkscape:window-height="1016"
     inkscape:window-x="0"
     inkscape:window-y="0"
     inkscape:window-maximized="1"
     inkscape:current-layer="layer6" />
  <g
     inkscape:groupmode="layer"
     id="layer6"
     inkscape:label="Layer 1">
    <path
       style="fill:#000000;stroke-width:1.33333"
       d="m 949.27649,831.70998 c -13.77569,-2.44687 -20.76673,-7.35556 -22.70299,-15.94067 -1.66428,-7.37918 1.26472,-12.62656 14.14388,-25.339 13.75692,-13.57885 22.63211,-18.26079 38.80216,-20.46936 19.50915,-2.66463 25.43576,-4.06085 28.94086,-6.81797 1.8403,-1.44759 8.2779,-9.02067 14.3058,-16.82907 6.0278,-7.8084 17.3086,-21.24057 25.0683,-29.84927 7.7597,-8.60869 16.0625,-18.88617 18.4505,-22.83885 5.292,-8.75916 21.3948,-45.67027 28.6603,-65.69543 11.4907,-31.67059 6.0865,-43.77777 -23.5726,-52.81017 -64.2486,-19.56631 -106.37712,-37.16893 -128.06989,-53.51157 -9.38775,-7.07242 -30.33581,-27.376 -42.75263,-41.43728 -7.86845,-8.91056 -4.16617,-8.90966 -38.60702,-0.009 -40.4507,10.45345 -54.37239,13.60075 -71.62429,16.19219 -9.44928,1.4194 -18.441,3.51917 -20.30783,4.74237 l -3.3502,2.19512 14.82977,22.31932 c 8.15638,12.27561 18.75731,30.29495 23.55764,40.04295 l 8.72787,17.72365 -3.44116,7.01638 c -3.36893,6.86912 -13.20216,16.69773 -37.05847,37.04101 -11.84262,10.09872 -17.849,13.97347 -38,24.51409 -9.53333,4.98671 -26.33333,14.28751 -37.33333,20.66846 -11,6.38095 -26.6,15.07111 -34.66667,19.31148 -8.06666,4.24036 -20.53154,11.28865 -27.69973,15.66285 -15.11089,9.22104 -24.62202,13.14407 -32.6145,13.45243 l -5.68571,0.21935 -3e-5,8.2 c -2e-5,7.59366 0.34504,8.54506 4.66664,12.86666 4.05363,4.05363 4.66578,5.51616 4.65984,11.13334 -0.005,4.5314 -0.98989,8.06276 -3.29172,11.8 -4.18045,6.78736 -4.16344,8.85537 0.12627,15.33752 4.8528,7.33307 5.53237,15.29013 1.98984,23.29864 -1.76389,3.98755 -2.82517,9.17313 -2.83795,13.86667 -0.0308,11.30802 0.17922,11.18954 -18.81252,10.61296 -16.1551,-0.49047 -16.70197,-0.60812 -26.13297,-5.62228 -5.29792,-2.81674 -12.11379,-7.81311 -15.14636,-11.10307 -9.5896,-10.40341 -19.88776,-37.3383 -19.88776,-52.0164 0,-3.22636 1.5,-12.51102 3.33333,-20.63258 1.83334,-8.12156 3.33668,-18.43582 3.34078,-22.92061 0.004,-4.48479 0.63506,-10.41423 1.40218,-13.17655 1.28808,-4.63826 2.3943,-5.52398 14.46371,-11.5807 15.99869,-8.02852 28.66848,-17.95467 52.12667,-40.83867 12.98445,-12.66664 25.05892,-22.66446 43.33333,-35.88059 27.46942,-19.86599 31.33333,-22.99504 31.33333,-25.37423 0,-2.02756 -5.73869,-4.36504 -29.23955,-11.90985 -24.06815,-7.72693 -41.15683,-15.96059 -51.22815,-24.68268 -14.90952,-12.91216 -17.37659,-13.82825 -38.7594,-14.39257 l -18.7729,-0.49543 -15.68045,32.42189 c -8.62425,17.83204 -16.06087,34.5219 -16.5258,37.08856 -1.53067,8.44982 -5.55436,14.24815 -17.25021,24.85836 -10.41639,9.4495 -14.25788,14.52648 -39.23959,51.85986 -26.80034,40.05119 -46.2094,67.36927 -49.16077,69.19329 -0.78649,0.4861 -3.92256,8.87519 -6.96904,18.64243 l -5.53904,17.75864 -5.67751,2.75835 c -3.12262,1.51709 -9.59904,6.42675 -14.39202,10.91035 -4.79299,4.4836 -10.70204,8.72201 -13.13123,9.4187 -2.4292,0.69668 -24.59723,1.2667 -49.26227,1.2667 -37.72702,0 -45.10246,-0.30956 -46.46406,-1.95019 -2.36177,-2.84577 -3.24509,-16.49397 -1.48787,-22.98919 2.01943,-7.46436 6.57595,-12.60948 17.975,-20.29691 12.44996,-8.39616 21.43981,-12.86954 36.66989,-18.2471 21.49588,-7.58994 22.03324,-8.1322 38.8288,-39.18328 13.6938,-25.31666 16.56879,-29.98136 33.1415,-53.77265 25.63494,-36.80073 34.31437,-54.28896 38.31145,-77.19406 2.33008,-13.35235 2.20815,-19.03118 -1.5252,-71.0333 -1.75982,-24.51272 -2.87216,-36.81404 -6.78795,-75.06715 l -0.85992,-8.40046 -22.15352,-21.10526 c -27.72309,-26.41129 -41.482,-38.51933 -57.07453,-50.22641 -14.59901,-10.96112 -42.87336,-26.48647 -53.07625,-29.14399 -10.48772,-2.73171 -24.06509,-1.19897 -77.33607,8.73036 -30.0747,5.60572 -63.34116,10.54624 -71.0119,10.54624 -9.03235,0 -18.54479,-3.50837 -21.93112,-8.08863 -1.5411,-2.08445 -4.65937,-4.19117 -6.929486,-4.68158 -10.20015,-2.20359 -26.12748,-13.47162 -26.12748,-18.48428 0,-3.08206 24.04666,-26.74325 43.475446,-42.77854 8.72183,-7.19844 24.75396,-21.92371 35.62694,-32.72281 l 19.76907,-19.63475 -0.87256,-5.81861 c -0.56429,-3.76299 -0.18687,-7.80883 1.06835,-11.45211 1.86372,-5.40951 1.81482,-5.76955 -1.22984,-9.0548 -3.70832,-4.00133 -3.81386,-4.83936 -1.23702,-9.82243 2.96298,-5.72974 14.63891,-15.73191 31.59579,-27.06648 21.78748,-14.56349 25.75384,-18.85313 28.47245,-30.79303 2.2746,-9.98986 4.6371,-27.845247 4.65458,-35.178767 0.007,-2.96048 -0.73422,-4.47972 -2.45172,-5.02484 -2.03399,-0.64556 -2.96223,-3.96321 -5.34116,-19.08985 -1.58363,-10.06967 -2.86539,-22.50849 -2.84835,-27.64183 0.0565,-17.02691 5.18677,-33.9999999 10.27679,-33.9999999 3.25192,0 16.5218,14.6158499 24.2542,26.7142799 19.56041,30.60509 25.86202,39.82505 29.88333,43.72266 l 4.37832,4.24363 12.82878,-17.00695 c 14.77026,-19.58074 44.27795,-52.3402799 47.14478,-52.3402799 2.49838,0 4.06565,3.7617199 6.39673,15.3533299 1.03452,5.14434 4.5746,15.34674 7.86685,22.67201 7.9714,17.73645 14.97056,40.14319 19.1507,61.307987 5.05501,25.59448 3.26526,23.7879 43.3573,43.76494 26.00261,12.95658 38.53855,18.36512 54.44689,23.49078 60.33951,19.44135 112.74299,25.28469 212,23.63943 49.57959,-0.82182 64.55641,-1.79736 95.33333,-6.20968 10.26667,-1.47188 26.46667,-3.55238 36,-4.62332 9.53333,-1.07095 23.33333,-2.85639 30.66667,-3.96764 20.18174,-3.05822 54.43313,-4.73396 97.05254,-4.74828 55.6689,-0.0187 70.7487,2.00248 99.5404,13.34166 l 17.4426,6.86948 6.3155,-4.72169 c 24.4138,-18.25251 37.0276,-24.68107 58.9822,-30.05998 21.9188,-5.37012 35.4183,-6.75266 66,-6.7594 27.7031,-0.007 40.288,1.51759 66.6667,8.07154 25.0196,6.21627 35.73,10.09473 58.6667,21.24463 24.8182,12.06454 34.7906,18.39512 63.9581,40.60113 41.1612,31.33723 74.4284,53.64808 102.3168,68.61947 28.1793,15.12755 103.1184,47.29041 131.0584,56.24851 52.5015,16.833 91.1367,29.73473 97.5925,32.58984 14.922,6.59922 40.927,31.25107 47.8586,45.36825 3.4145,6.95436 3.8821,9.35276 3.8813,19.907 0,14.84386 -3.5413,23.45398 -13.7933,33.54552 -11.9019,11.71566 -31.5962,19.13428 -72.8724,27.45038 -44.1664,8.89838 -94.4378,6.11302 -161.8262,-8.96622 -28.0189,-6.26968 -105.0964,-28.0786 -131.5072,-37.20969 -11.7333,-4.0566 -27.9333,-9.16459 -36,-11.35107 -67.8521,-18.39145 -151.2263,-54.62499 -169.5987,-73.70572 -5.5228,-5.73572 -16.9512,-24.78921 -20.1364,-33.57139 -1.3681,-3.77216 -4.154,-11.52432 -6.1909,-17.22701 -2.0369,-5.70268 -4.7188,-11.62241 -5.9598,-13.15495 -2.1301,-2.63054 -2.2439,-0.52149 -2.0351,37.70187 l 0.2212,40.48828 4.2843,12 c 11.4648,32.11239 27.2545,56.78715 44.5517,69.62171 11.1111,8.24437 16.3162,10.42383 44.1971,18.50557 13.2,3.82627 27.3,8.17438 31.3333,9.66247 4.0333,1.48811 11.6434,3.94932 16.9113,5.46939 9.6148,2.77437 16.4878,7.23145 19.3547,12.55134 0.9745,1.80851 1.5863,11.1706 1.6677,25.52286 0.124,21.86207 0.2793,23.10124 4.3749,34.90895 4.9677,14.3224 15.4258,35.56937 32.1414,65.2998 13.1887,23.45715 16.6115,30.74035 15.3821,32.72963 -0.4493,0.72696 -0.7342,7.71322 -0.633,15.52502 0.1406,10.86564 -0.4463,16.23984 -2.4975,22.86994 -3.4123,11.02942 -3.3756,12 0.4519,12 4.7418,0 9.4724,4.45229 12.6984,11.95105 1.863,4.33099 3.7042,6.72024 5.1852,6.72864 6.8157,0.0387 27.0104,12.73088 33.2294,20.88453 l 3.5146,4.60787 -2.7764,5.71465 c -3.6415,7.49537 -16.0374,20.78671 -24.3774,26.13846 -8.7062,5.58681 -20.2612,9.0804 -32.986,9.97317 l -10.308,0.72323 -14.3006,-8.3608 c -19.845,-11.60224 -41.0841,-31.36735 -46.9042,-43.64888 -3.6481,-7.69819 -4.1177,-10.0307 -4.0355,-20.04526 0.059,-7.21241 1.3924,-17.01212 3.6666,-26.95113 4.0465,-17.68399 4.5635,-31.24152 1.5203,-39.86687 -1.1293,-3.20097 -6.1555,-12.7264 -11.1692,-21.16764 -5.0137,-8.44123 -13.1638,-22.54769 -18.1113,-31.34769 -9.3852,-16.69339 -15.3795,-25.21766 -19.1534,-27.23738 -1.2251,-0.65564 -7.0166,-1.58321 -12.87,-2.06129 l -10.6427,-0.86921 -10.9959,13.83464 c -16.4582,20.70692 -27.4477,33.61204 -43.3933,50.95732 -7.9141,8.60876 -18.8214,21.50479 -24.2385,28.65784 -12.1262,16.0122 -53.8948,78.81213 -57.7632,86.848 -1.5542,3.22855 -3.2331,10.07008 -3.7309,15.20342 -1.3799,14.2308 -5.0043,19.51194 -15.5376,22.63998 -3.7384,1.11019 -9.1337,4.26111 -12.745,7.44324 -11.6891,10.30002 -9.4359,9.89542 -56.26218,10.10262 -23.1,0.10226 -43.5,-0.0805 -45.33333,-0.40623 z"
       transform="translate(-73.276514,-3.2640131)"
       id="path1502" />
    <g
       id="layer8"
       inkscape:label="Body"
       style="display:inline;fill:#d45500">
      <path
         style="display:inline;fill:#d45500;stroke-width:1.33333"
         d="m 976.593,819.36559 c 7.5658,-3.19194 9.70172,-3.61464 11.79069,-2.33333 6.92381,4.24687 8.59756,4.86023 13.31231,4.87845 2.7974,0.0107 8.0886,-1.27198 11.7583,-2.85066 5.7841,-2.48826 7.4991,-2.68111 12.884,-1.44886 7.0255,1.60766 7.0979,1.58103 19.7308,-7.24997 l 8.7651,-6.12727 -0.4455,-7.74633 -0.4456,-7.74635 11.4905,-12.44664 c 6.3198,-6.84564 12.8585,-15.12809 14.5304,-18.40545 4.9408,-9.68523 49.5361,-75.50526 53.2714,-78.62548 0.439,-0.36667 3.1694,-3.66667 6.0677,-7.33334 10.9209,-13.81643 25.7032,-31.07819 37.1027,-43.32609 21.8141,-23.43763 39.5332,-49.5634 39.5363,-58.29418 0,-4.41237 -7.1574,-11.73789 -19.9291,-20.39273 -12.7341,-8.62937 -18.9635,-14.74162 -38.7149,-37.987 -30.0089,-35.31746 -38.6637,-51.29012 -38.6809,-71.38654 -0.01,-11.39798 2.4472,-20.47714 11.8922,-43.9468 4.2793,-10.63333 8.4843,-22.63333 9.3446,-26.66667 2.2902,-10.73684 1.0168,-66.125 -1.7588,-76.50596 -2.325,-8.69553 -2.0685,-9.75155 2.8199,-11.61012 2.6122,-0.99317 4.7103,-0.64075 9.2401,1.55207 5.5968,2.70938 12.4546,9.83886 12.4546,12.94808 0,0.80613 2.3783,6.44949 5.2851,12.54081 2.9068,6.09132 7.7556,17.37512 10.7751,25.07512 11.0698,28.22867 16.8734,34.84238 43.6063,49.69316 10.0834,5.60159 22.5335,12.07608 27.6668,14.38778 5.1333,2.31168 12.6333,5.70372 16.6667,7.53785 9.9872,4.54167 24.4691,10.25508 42,16.56995 8.0666,2.90572 16.7666,6.14579 19.3333,7.20013 2.5667,1.05436 22.6667,7.0388 44.6667,13.29875 22,6.25996 52.6,15.52032 68,20.57857 26.915,8.84048 67.7324,20.8047 91.1692,26.72315 11.3664,2.87031 55.8601,9.5472 78.8308,11.82963 44.235,4.3953 85.7414,-0.7557 118.5252,-14.70916 26.1917,-11.14775 33.4468,-19.34363 33.4673,-37.8068 0.013,-9.18968 -6.6725,-20.30675 -21.6905,-36.0833 -12.057,-12.66588 -17.2892,-16.05345 -30.4036,-19.68448 -71.9772,-19.92853 -101.7476,-29.42123 -125.8984,-40.14441 -2.2,-0.97682 -7,-3.1077 -10.6667,-4.73528 -10.5907,-4.70103 -15.8415,-7.06495 -41.3333,-18.6082 -20.9347,-9.47966 -39.5632,-18.81532 -56.281,-28.20514 -10.9429,-6.1463 -36.7878,-23.67657 -57.551,-39.03627 -68.7144,-50.83168 -79.1218,-57.27496 -120.8347,-74.80946 -27.6178,-11.60946 -36.6296,-13.74134 -70.6667,-16.71733 -32.9607,-2.88188 -68.2626,-0.0507 -95.3333,7.64571 -11.0929,3.1538 -28.4883,12.03795 -34.5773,17.65932 -7.4156,6.84607 -7.3027,10.86348 0.5773,20.53702 6.2237,7.64017 7.3345,11.44481 4.1202,14.11237 -1.4973,1.24264 -3.8711,0.22689 -11.6666,-4.99196 -23.2903,-15.59211 -40.331,-22.49581 -71.4624,-28.95145 -26.78763,-5.55491 -46.65049,-6.59275 -92.99114,-4.85882 -45.6939,1.70974 -58.87264,3.01492 -109.85718,10.87998 -63.0053,9.71941 -67.12309,10.01377 -140.14282,10.01824 -66.6585,0.004 -75.34728,-0.37974 -106,-4.6822 -71.08364,-9.97746 -122.51086,-26.16798 -164.55345,-51.80537 -13.76766,-8.39545 -15.38249,-8.60508 -14.19004,-1.84198 0.48488,2.75 1.21102,15.05 1.61366,27.33333 l 0.73205,22.33334 h -3.50077 c -4.67156,0 -5.87278,-3.49394 -6.76812,-19.68632 -1.2585,-22.75991 -3.5832,-39.29413 -7.35531,-52.31369 -2.01843,-6.96666 -5.8974,-22.56666 -8.61996,-34.666657 -8.41667,-37.40666 -16.90439,-60.20268 -22.73079,-61.04949 -6.90364,-1.00339 -23.56829,17.97413 -40.50745,46.1294 -15.91884,26.459347 -22.77345,43.838147 -24.73476,62.711097 -1.36889,13.17235 -2.17497,14.37636 -13.02714,19.45815 -11.79032,5.5211 -29.70843,11.41751 -34.69579,11.41751 -2.68628,0 -3.66212,-0.66334 -3.66212,-2.48935 0,-2.63683 16.30449,-12.70291 27.50229,-16.97939 10.89236,-4.15983 17.43244,-13.80199 13.8729,-20.45307 -1.8954,-3.54158 -4.75039,-3.45898 -15.10064,0.43683 -17.02887,6.40965 -34.9758,17.44795 -55.60788,34.20172 -14.33771,11.64259 -18.66667,16.50058 -18.66667,20.94786 0,5.4646 3.78108,5.10548 9.94567,-0.94462 5.98772,-5.87649 10.29438,-6.74557 11.15976,-2.25202 0.26209,1.36088 -2.96992,7.51566 -7.31802,13.9359 -9.24341,13.64844 -13.44105,20.20627 -14.67705,22.92947 -4.18692,9.22473 -18.27559,22.77397 -57.11036,54.92375 -5.86667,4.85677 -12.68547,10.93536 -15.15291,13.50795 l -4.48624,4.67745 4.48624,5.58145 c 4.16113,5.17698 4.52032,6.39292 4.9564,16.77876 0.46491,11.07238 0.50954,11.19844 4,11.29932 1.94141,0.0561 4.72984,0.37436 6.19651,0.70722 11.31403,2.56769 34.56383,-1.33744 90.66667,-15.22879 l 36,-8.91377 38.66666,-0.12427 c 59.33284,-0.19077 72.70931,-3.62933 81.52952,-20.95806 2.82761,-5.55529 3.74867,-6.35994 6.86801,-6 3.29838,0.38062 3.59312,0.88902 3.4918,6.02274 -0.21454,10.86952 -10.02848,20.31599 -28.556,27.48676 -13.24705,5.12705 -22.3085,7.40293 -34,8.53943 l -10.66666,1.03686 11.15276,5.9983 c 29.44456,15.83617 88.56687,66.48892 112.82816,96.66496 17.16261,21.34675 51.46739,59.80675 59.85429,67.1042 18.51381,16.10893 39.00088,26.53245 54.83145,27.89745 l 8,0.6898 -10.33333,-10.69261 c -7.59179,-7.85575 -10.33334,-11.62871 -10.33334,-14.22091 0,-4.58137 3.08835,-5.67253 7.67696,-2.71237 3.96971,2.56088 28.56878,20.77847 29.65638,21.96292 0.36666,0.39931 6.96666,6.06424 14.66666,12.58871 24.1086,20.42804 35.05431,26.22949 65.33333,34.62803 25.76218,7.14569 44.66819,14.80336 46.16256,18.69761 0.93668,2.44096 -6.95605,9.53629 -33.82704,30.40956 -26.18461,20.34009 -34.75727,27.72511 -58.8397,50.68804 -10.57396,10.08243 -22.83052,20.2644 -30.01683,24.9361 -27.04526,17.58164 -26.8618,17.35496 -30.97912,38.27686 -4.1097,20.8832 -4.29245,41.92991 -0.46153,53.15439 6.176,18.09546 11.07955,23.65878 28.62833,32.4803 10.1773,5.11597 14.08323,5.99858 16.98496,3.83805 2.19507,-1.63437 2.19812,-2.3036 0.0575,-12.59019 -2.13072,-10.23904 -2.12888,-11.42804 0.0321,-20.66666 3.24598,-13.87699 2.93638,-16.68619 -3.1817,-28.87062 -5.88636,-11.72295 -6.17606,-14.88076 -1.55176,-16.91483 4.54137,-1.9976 4.05949,-9.11622 -1.00779,-14.88753 -6.5966,-7.51312 -5.21449,-10.35688 5.63913,-11.60284 10.58563,-1.21519 19.29834,-4.73469 37.0787,-14.97797 8.40519,-4.84224 21.88217,-12.12047 29.94883,-16.17386 8.06667,-4.05337 21.10538,-11.18481 28.97492,-15.84762 7.86954,-4.66282 20.46954,-11.56701 28,-15.34263 22.98298,-11.52323 61.6167,-39.0932 76.02508,-54.25338 6.72851,-7.0796 7.66667,-8.72369 7.66667,-13.43566 0,-6.89226 -6.87708,-20.098 -23.34533,-44.82901 -17.92696,-26.92169 -49.10431,-63.27357 -60.08968,-70.0629 -3.93492,-2.43192 -4.56496,-3.53888 -4.56496,-8.0205 0,-4.46274 0.48221,-5.32021 3.4044,-6.05362 4.50648,-1.13107 8.59413,1.87186 27.92305,20.51326 8.52977,8.22638 16.59511,14.95704 17.92297,14.95704 1.32787,0 5.0198,-0.91926 8.2043,-2.04282 3.18449,-1.12356 13.00993,-3.22146 21.8343,-4.662 8.82438,-1.44055 20.84431,-3.83791 26.71097,-5.32748 39.51383,-10.0327 53.53322,-13.82418 65,-17.57894 l 13,-4.2568 v -19.23426 c 0,-27.82851 6.21268,-51.95954 13.03568,-50.63266 2.0952,0.40747 2.30592,3.26447 2.39148,32.42423 0.1012,34.48591 0.39594,36.22205 8.82394,51.9774 12.0145,22.45995 44.55558,49.72311 74.09789,62.07976 14.90189,6.23303 43.17489,15.65436 56.31759,18.7666 36.7376,8.69952 59.1413,21.3589 68.1118,38.48698 2.4298,4.63933 3.1426,8.11658 3.1435,15.33333 0,10.09909 -1.5758,14.55903 -16.7791,47.45541 -3.9286,8.5005 -7.9749,17.5005 -8.9919,20.00001 -7.6936,18.90928 -14.1235,29.43494 -28.84,47.21125 -8.4995,10.26667 -17.5919,21.96667 -20.2054,26 -16.8164,25.9522 -23.9856,33.26399 -34.5926,35.28064 -6.2854,1.19503 -9.89672,1.84123 -22.43106,4.01376 -14.53034,2.5185 -20.98771,6.01515 -35.4499,19.19603 -8.94125,8.14908 -10.70938,10.42204 -10.37198,13.33333 0.54693,4.7193 5.41673,5.20566 16.0769,1.60566 4.49952,-1.51951 8.61678,-2.76275 9.14946,-2.76275 0.53266,0 1.36384,1.8 1.84704,4 0.4832,2.2 0.99818,4 1.1444,4 0.14621,0 4.42366,-1.75415 9.50544,-3.89811 z"
         transform="translate(-73.276514,-3.2640131)"
         id="path1529" />
      <path
         style="fill:#d45500;stroke-width:1.33333"
         d="m 1377.6628,800.43626 c 11.5422,-5.81355 22.3515,-16.65152 24.138,-24.20184 0.9183,-3.88107 0.7548,-4.02483 -6.3616,-5.59422 -2.1104,-0.46541 -7.2104,-4.04485 -11.3333,-7.95429 l -7.4961,-7.10809 -9.3334,-0.17243 c -5.1333,-0.0948 -11.4333,-0.83943 -14,-1.65463 -5.2465,-1.66636 -10.6666,-6.07324 -10.6666,-8.67257 0,-2.25053 4.2704,-4.48116 8.579,-4.48116 4.0386,0 4.2142,-1.05701 1.0876,-6.55019 -2.0898,-3.67185 -2.9941,-4.10049 -8.6666,-4.10805 -5.343,-0.007 -6.3334,-0.40683 -6.3334,-2.55615 0,-1.68588 1.9549,-3.49404 5.7787,-5.34513 11.1771,-5.41076 12.0317,-7.22709 12.1327,-25.78679 0.079,-14.43865 -0.2308,-16.78154 -2.6822,-20.32036 -6.4581,-9.32317 -33.2013,-61.02637 -39.6554,-76.66667 -6.8933,-16.70478 -8.6824,-25.33506 -9.3981,-45.33333 -0.7027,-19.63619 -2.0866,-25.48812 -6.5728,-27.79268 -3.6031,-1.85096 -26.091,-9.63726 -44.9362,-15.55886 -40.7,-12.78894 -49.385,-17.101 -64.7503,-32.14826 -6.6459,-6.50844 -14.7943,-15.43354 -18.1075,-19.83354 -6.1424,-8.15732 -14.2804,-25.66629 -19.9723,-42.97027 -1.7434,-5.30032 -3.7699,-9.6369 -4.5032,-9.63686 -0.7334,2e-5 -3.4242,5.23665 -5.9796,11.63693 -5.7224,14.33204 -7.131,31.25207 -3.3819,40.6221 2.5548,6.38498 14.1347,24.53125 23.1952,36.3481 3.3737,4.4 7.0361,9.2 8.1385,10.66667 5.6364,7.49823 22.7378,22.84276 39.1404,35.11958 10.1165,7.57184 19.5684,15.6675 21.0042,17.99037 2.0402,3.30061 2.5613,6.34133 2.3849,13.91692 -0.1242,5.33144 0.043,9.96217 0.3712,10.29053 0.3284,0.32836 4.1663,0.9542 8.5287,1.39076 4.3625,0.43658 9.2641,1.06284 10.8926,1.39172 3.4115,0.68898 9.5089,9.28424 21.6837,30.56679 4.6146,8.06667 12.2849,20.90765 17.045,28.53552 9.2574,14.83452 16.3769,28.56555 18.7338,36.13115 2.3223,7.45436 3.3287,27.24107 1.7447,34.30064 -0.7856,3.50132 -2.3197,13.63159 -3.4092,22.51171 -2.0937,17.06473 -1.5914,21.94868 2.9626,28.80726 4.1405,6.23582 31.2421,28.94283 39.4914,33.08783 10.0363,5.04286 21.8703,5.4819 30.5068,1.13179 z"
         transform="translate(-73.276514,-3.2640131)"
         id="path1551" />
      <path
         style="fill:#d45500;stroke-width:1.33333"
         d="m 329.55891,801.11766 c 2.2825,-1.18032 7.8027,-2.47004 12.26712,-2.86605 5.78142,-0.51283 8.93004,-1.5259 10.94216,-3.52063 1.55378,-1.54033 5.25478,-4.74336 8.22447,-7.11783 5.81533,-4.64976 11.96475,-14.87707 16.61703,-27.63637 1.60041,-4.38928 6.30108,-12.49534 10.44593,-18.01347 4.14485,-5.51812 18.70606,-26.23295 32.35821,-46.03295 46.61995,-67.61379 56.16455,-80.98684 61.90897,-86.74135 2.15514,-2.15892 4.30538,-5.97038 4.77831,-8.4699 0.47295,-2.49952 3.54559,-9.86984 6.82809,-16.37848 6.75542,-13.39478 19.3473,-47.45949 19.3473,-52.34005 0,-1.99897 -1.3918,-4.20374 -3.66667,-5.80844 -3.41748,-2.41069 -16.95677,-9.59512 -18.08229,-9.59512 -0.27736,0 -0.88786,7.99783 -1.35667,17.77296 -1.47395,30.73353 -5.94328,46.89371 -12.96911,46.89371 -4.63876,0 -4.8171,-4.13589 -0.69328,-16.07754 3.02272,-8.75311 3.43468,-12.08178 3.43468,-27.75227 0,-26.72032 -0.99518,-30.37531 -11.11757,-40.83124 -4.61759,-4.76976 -13.55027,-14.67228 -19.85037,-22.00562 -13.47608,-15.68616 -19.34048,-21.46936 -20.54717,-20.26265 -0.74626,0.74625 -0.0236,11.44327 2.94532,43.59599 5.03082,54.48328 5.53305,70.56976 2.63077,84.26411 -5.51837,26.03825 -6.88297,29.20238 -23.99054,55.6271 -8.95686,13.83496 -18.08907,27.46921 -20.29381,30.2983 -8.399,10.77755 -15.65513,22.62836 -26.32042,42.98687 -6.06936,11.58552 -12.865,23.7241 -15.10142,26.97462 -5.52201,8.02598 -15.3841,16.90478 -19.94264,17.95428 -2.06001,0.47428 -7.49708,2.59462 -12.08237,4.71186 -4.58529,2.11724 -9.08529,3.85001 -10,3.85058 -2.99688,10e-4 -18.41399,7.88771 -26.47347,13.54111 -8.92925,6.26352 -13.18963,12.16875 -13.18963,18.28188 0,4.827 0.25392,4.87418 11.10358,2.06275 7.91375,-2.05067 8.22044,-2.0326 10.36027,0.60996 1.2128,1.49776 2.49036,2.43793 2.83901,2.08928 1.28536,-1.28536 14.89733,-4.2976 16.55167,-3.66277 0.94084,0.36104 2.07389,1.801 2.51789,3.19992 0.66492,2.09497 2.09628,2.54349 8.11697,2.54349 4.11078,0 9.12584,-0.93916 11.45968,-2.14604 z"
         transform="translate(-73.276514,-3.2640131)"
         id="path1547" />
      <path
         style="fill:#d45500;stroke-width:1.33333"
         d="m 267.70612,123.67653 7.64746,-2.25381 7.82391,-16.56727 7.8239,-16.567267 -10.73152,-10.17891 c -12.86714,-12.20459 -17.92354,-18.59701 -26.3261,-33.28214 -6.90463,-12.06719 -15.95605,-24.23011 -18.0316,-24.23011 -2.03477,0 -1.53931,20.43171 0.73829,30.44555 1.25439,5.51512 3.36532,10.49693 5.47876,12.92988 4.76608,5.48664 12.82412,17.4521 16.58319,24.62456 4.12031,7.86173 4.16532,20.335817 0.10947,30.333337 -3.31098,8.16142 -3.0952,8.27669 8.88424,4.74618 z"
         transform="translate(-73.276514,-3.2640131)"
         id="path1563" />
      <path
         style="fill:#d45500;stroke-width:1.33333"
         d="m 241.40401,131.17289 c 2.12987,-1.51661 3.87249,-3.54033 3.87249,-4.49718 0,-0.95684 1.24739,-4.55964 2.77198,-8.00622 3.80118,-8.59321 4.06588,-20.253477 0.57784,-25.454277 l -2.65019,-3.95153 -0.91223,10.797557 c -0.59961,7.09733 -2.31661,14.40807 -5.01034,21.33333 -5.48872,14.11088 -5.42116,14.60012 1.35045,9.77832 z"
         transform="translate(-73.276514,-3.2640131)"
         id="path1561" />
    </g>
    <g
       id="layer10"
       inkscape:label="Lines"
       style="display:inline">
      <path
         style="fill:#000000;stroke-width:1.33333"
         d="m 107.13359,316.25218 c 2.38475,-3.78788 -1.61069,-9.65516 -6.57488,-9.65516 -3.294756,0 -4.017456,0.59399 -4.362966,3.58589 -0.26494,2.29418 0.60512,4.60512 2.41531,6.41532 3.214226,3.21423 6.361546,3.08644 8.522536,-0.34605 z"
         transform="translate(-73.276514,-3.2640131)"
         id="path1559" />
      <path
         style="fill:#000000;stroke-width:1.33333"
         d="m 1286.4942,561.55463 c -3.2035,-2.45959 -5.4685,-7.44111 -5.6876,-12.50938 -0.1851,-4.2778 -0.7953,-4.84634 -10.1968,-9.49917 -9.1225,-4.51475 -10,-5.30008 -10,-8.94906 0,-3.84057 0.2589,-4.01646 6.4959,-4.41302 7.2458,-0.46071 15.1146,2.1549 21.8374,7.25888 l 4.3333,3.28985 v 13.26548 c 0,11.76106 -0.2646,13.26067 -2.3333,13.22308 -1.2833,-0.0233 -3.2853,-0.77333 -4.4489,-1.66666 z"
         transform="translate(-73.276514,-3.2640131)"
         id="path1557" />
      <path
         style="fill:#000000;stroke-width:1.33333"
         d="m 1330.0823,667.53294 c -1.061,-2.05191 -4.1444,-9.10191 -6.8519,-15.66667 -7.5679,-18.34947 -14.5869,-31.78996 -24.7056,-47.30827 -9.4088,-14.42955 -11.647,-21.31529 -6.915,-21.27389 1.2833,0.0107 2.97,0.46122 3.7481,1 4.7402,3.28212 40.4189,73.18113 41.5114,81.32599 0.684,5.0996 0.4831,5.6536 -2.0497,5.6536 -1.7264,0 -3.5511,-1.43703 -4.7373,-3.73076 z"
         transform="translate(-73.276514,-3.2640131)"
         id="path1555" />
      <path
         style="fill:#000000;stroke-width:1.33333"
         d="m 1377.3531,783.18467 c -8.7723,-3.97948 -17.41,-11.50656 -17.41,-15.17129 0,-2.8226 0.7467,-3.14536 9.2047,-3.97879 8.8436,-0.87143 9.3536,-0.76081 13,2.81945 7.0476,6.9197 11.1286,12.76016 11.1286,15.92633 0,2.75632 -0.6249,3.14634 -5,3.12072 -2.75,-0.0161 -7.6654,-1.2385 -10.9233,-2.71642 z"
         transform="translate(-73.276514,-3.2640131)"
         id="path1553" />
      <path
         style="fill:#000000;stroke-width:1.33333"
         d="m 393.07077,713.80483 c 3.51645,-9.24896 37.75992,-62.56407 52.5867,-81.87447 7.86599,-10.24467 12.36111,-12.91723 10.83377,-6.4412 -1.5716,6.66372 -9.64995,20.72552 -20.23858,35.22884 -5.67023,7.76654 -14.93761,20.66654 -20.5942,28.66667 -10.03458,14.19191 -14.72482,19.84995 -20.84687,25.14855 l -3.00737,2.60285 z"
         transform="translate(-73.276514,-3.2640131)"
         id="path1549" />
      <path
         style="fill:#000000;stroke-width:1.33333"
         d="m 312.65799,120.13044 c -3.19449,-2.33587 -2.03804,-8.81402 2.82655,-15.83363 3.69548,-5.332567 7.03905,-6.350167 9.82708,-2.99082 2.00311,2.4136 0.31811,9.28489 -3.99495,16.29102 -2.90633,4.72107 -4.87797,5.29795 -8.65868,2.53343 z"
         transform="translate(-73.276514,-3.2640131)"
         id="path1545" />
      <path
         style="fill:#000000;stroke-width:1.33333"
         d="m 332.58147,168.70255 c -10.62449,-5.89298 -14.61729,-9.49099 -22.84438,-20.58555 -5.9143,-7.97568 -6.7931,-11.38503 -4.49359,-17.43319 1.64125,-4.31684 4.46403,-4.33761 13.56727,-0.0999 9.771,4.54864 15.44053,4.46296 17.23638,-0.26048 1.82778,-4.80742 0.4408,-12.28141 -4.52672,-24.39316 -5.34692,-13.036797 -5.74926,-26.442867 -1.10576,-36.843247 3.84776,-8.61808 9.47898,-14.20157 13.71794,-13.60168 2.72469,0.3856 3.08413,1.06717 2.6957,5.1116 -1.22946,12.80171 -0.77022,38.4892 0.74131,41.464807 3.29944,6.4953 9.70725,24.0347 13.13991,35.96636 4.2729,14.8524 4.01865,23.96433 -0.86894,31.14042 -3.04564,4.47171 -3.65096,4.74303 -10.56409,4.73501 -6.02163,-0.007 -9.00785,-0.93731 -16.69503,-5.20107 z"
         transform="translate(-73.276514,-3.2640131)"
         id="path1543" />
      <path
         style="fill:#000000;stroke-width:1.33333"
         d="m 441.91754,395.18493 c -16.0368,-11.11179 -29.93894,-20.50299 -30.89366,-20.86935 -1.36034,-0.52201 -1.55648,1.04999 -0.90666,7.26711 0.72713,6.95677 0.52272,8.05081 -1.66075,8.88869 -3.51704,1.34961 -6.64475,-3.0034 -9.8448,-13.70156 -3.81909,-12.76768 -3.94014,-17.35175 -0.51952,-19.67456 3.02623,-2.05501 4.87588,-0.99188 31.85102,18.30708 15.20201,10.87604 23.40006,16.06253 24.68206,15.61509 1.54399,-0.53888 -4.06746,-11.44481 -16.52516,-32.1168 -14.89816,-24.72164 -16.66985,-30.30361 -9.61822,-30.30361 1.99322,0 19.34398,10.25963 44.03998,26.04113 22.41303,14.32263 41.6586,26.38943 42.76793,26.81512 2.80586,1.07671 2.44024,0.1991 -13.68809,-32.85625 -14.7076,-30.14352 -21.65851,-45.82107 -21.65851,-48.85005 0,-4.01934 22.46354,-1.4169 55.0814,6.38126 15.5008,3.70588 22.18423,4.08976 16.9186,0.97175 -15.27282,-9.04371 -81.10093,-50.71747 -86.33333,-54.65499 -4.47657,-3.36875 -7,-6.2584 -7,-8.01592 0,-2.71035 0.43123,-2.74191 31.28708,-2.29013 23.6486,0.34624 30.89145,0.0831 29.66667,-1.07824 -0.89123,-0.84498 -8.82042,-4.36227 -17.62042,-7.81622 -19.63136,-7.70518 -29.85865,-12.79454 -33.24421,-16.54317 -3.82045,-4.23017 -0.98769,-6.07509 13.24421,-8.62575 15.11807,-2.70945 20.52148,-2.74165 21.52435,-0.12826 1.20817,3.14845 -2.08085,5.98302 -6.94225,5.98302 -11.53919,0 -4.35318,5.08795 24.09736,17.06178 29.34158,12.34884 32.44305,14.34944 29.82608,19.23929 -1.46723,2.74155 -1.97312,2.77017 -34.33068,1.94268 l -32.84152,-0.83983 3.6253,2.96472 c 1.99392,1.6306 18.79392,12.50552 37.33334,24.1665 55.92848,35.17805 61.94372,39.56193 60.26973,43.92428 -1.23336,3.21409 -4.78885,2.86471 -37.3122,-3.66643 -16.08723,-3.23054 -31.64951,-6.24465 -34.58284,-6.69802 -2.93333,-0.45338 -6.23333,-1.05444 -7.33333,-1.3357 -9.68971,-2.47757 -9.74227,-2.46873 -8.94174,1.50331 0.4143,2.0556 9.16291,21.13745 19.44136,42.40412 10.27846,21.26667 19.08451,40.31108 19.569,42.32091 0.67852,2.81473 0.32454,3.86774 -1.54086,4.58356 -3.31784,1.27317 -14.33275,-4.82122 -46.57055,-25.76679 -30.98064,-20.12879 -39.15608,-25.04992 -40.08012,-24.12588 -0.36801,0.36801 4.24839,9.59091 10.25868,20.49532 15.01709,27.24536 20.08884,37.67097 19.59275,40.27529 -1.01623,5.33481 -6.33263,2.72952 -35.08748,-17.1945 z"
         transform="translate(-73.276514,-3.2640131)"
         id="path1537" />
      <path
         style="fill:#000000;stroke-width:1.33333"
         d="m 1623.5116,494.26369 c -1.2337,-2.09547 1.8772,-7.18775 5.731,-9.38076 2.2093,-1.25725 4.0208,-2.63619 4.0254,-3.06432 0.013,-1.01076 -53.3252,-19.93025 -56.1182,-19.90641 -2.8695,0.0245 -6.54,-4.22902 -6.54,-7.57879 0,-2.42652 2.0158,-3.13333 18.6666,-6.5448 10.2667,-2.10348 18.6667,-4.30235 18.6667,-4.88636 0,-1.08389 -11.4363,-6.62644 -29.3333,-14.21635 -15.5834,-6.60866 -21.3334,-10.36874 -21.3334,-13.95044 0,-2.93027 0.5062,-3.09587 10.2514,-3.3538 5.6382,-0.14924 10.5882,-0.46512 11,-0.70197 0.4117,-0.23686 6.7362,-0.83996 14.0545,-1.34024 7.3181,-0.5003 13.5108,-1.1146 13.7613,-1.36515 0.2506,-0.25056 -4.687,-3.96293 -10.9724,-8.24975 -8.6526,-5.90142 -11.428,-8.52273 -11.428,-10.7942 -10e-5,-3.69209 0.4132,-3.70013 27.7464,-0.53985 11.2272,1.29811 20.6559,1.96743 20.9526,1.48739 0.2966,-0.48004 -1.2392,-2.57687 -3.4132,-4.65963 -4.3267,-4.1452 -5.1314,-8.25259 -1.8626,-9.50692 2.933,-1.12551 7.3832,1.54788 18.818,11.30459 7.508,6.40614 9.8162,9.16368 9.5042,11.35437 -0.3751,2.63323 -1.1914,2.89097 -9.0788,2.86652 -4.7667,-0.0148 -14.0667,-0.49573 -20.6667,-1.06879 l -12,-1.0419 3.6847,3.06878 c 2.0266,1.68783 5.277,4.32423 7.2233,5.85867 7.9124,6.23835 0.5367,9.4478 -24.7607,10.77428 -19.6442,1.03007 -19.7017,0.913 5.8124,11.82516 30.3364,12.97458 31.7751,16.60142 8.5618,21.58532 -22.7894,4.89294 -22.0267,4.06406 -8.5215,9.25998 6.6,2.53926 18.3,6.4262 26,8.63762 15.8619,4.55554 20,6.72287 20,10.4751 0,3.0075 -7.2439,8.00908 -17.3943,12.00998 -7.1453,2.81646 -10.0881,3.25443 -11.0372,1.64267 z"
         transform="translate(-73.276514,-3.2640131)"
         id="path1535" />
      <path
         style="fill:#000000;stroke-width:1.33333"
         d="m 764.70985,597.04357 c -0.52804,-1.37605 0.85503,-4.79776 3.63786,-9 2.46938,-3.72893 4.90922,-8.57988 5.42186,-10.77988 2.75742,-11.83337 6.32828,-14.28074 11.41015,-7.82018 1.96693,2.50056 2.76344,5.45349 2.76344,10.24512 0,6.3321 -0.39572,7.1134 -6.66224,13.15352 -5.29631,5.10494 -7.59071,6.42154 -11.19068,6.42154 -2.99484,0 -4.81696,-0.75186 -5.38039,-2.22012 z"
         transform="translate(-73.276514,-3.2640131)"
         id="path1533" />
      <path
         style="fill:#000000;stroke-width:1.33333"
         d="m 1166.9431,605.04732 c -2.8767,-1.16076 -1.8363,-5.77359 3.1095,-13.78633 5.0296,-8.14858 7.0317,-16.57482 4.9433,-20.80508 -1.79,-3.62571 -0.1559,-10.40499 2.6377,-10.94298 2.5368,-0.48853 8.707,3.05687 14.8648,8.54128 3.7302,3.32231 3.8176,3.65976 2.1454,8.28415 -1.8246,5.04577 -7.8922,14.32855 -15.6385,23.92533 -4.3716,5.41582 -7.46,6.64064 -12.0622,4.78363 z"
         transform="translate(-73.276514,-3.2640131)"
         id="path1531" />
    </g>
    <g
       id="layer9"
       inkscape:label="Eye"
       style="display:inline">
      <path
         style="fill:#000000;stroke-width:1.33333"
         d="m 204.60246,243.25175 c -1.61458,-2.61244 0.88944,-6.58617 7.7223,-12.25476 3.80096,-3.15332 8.33105,-6.93331 10.06688,-8.39997 1.73581,-1.46667 5.19078,-6.6933 7.67772,-11.61474 6.16089,-12.19192 7.63958,-12.77366 17.36428,-6.83162 14.16796,8.65698 15.75532,9.45172 24.64801,12.34045 10.74698,3.49109 13.91901,5.62895 12.77506,8.61 -1.31206,3.41919 -4.74161,4.09811 -11.45247,2.26715 -12.40667,-3.38499 -11.97534,-3.49356 -14.99583,3.77456 -2.06272,4.96346 -3.91487,7.17157 -7.40432,8.82744 -6.19376,2.93913 -13.08685,1.59468 -17.824,-3.47646 -2.00208,-2.14324 -3.97068,-3.89678 -4.37465,-3.89678 -0.40398,0 -4.5969,2.7 -9.31759,6 -8.38049,5.85838 -13.20844,7.3681 -14.88539,4.65473 z"
         transform="translate(-73.276514,-3.2640131)"
         id="path1539" />
      <path
         style="fill:#ffff00;stroke-width:1.33333"
         d="m 244.60984,223.26368 c 0,-3.85762 -0.53283,-4.7422 -3.07339,-5.10234 -5.67804,-0.80492 -9.13423,5.02806 -5.26931,8.89298 0.91151,0.91151 3.16151,1.48151 5,1.26667 2.85692,-0.33387 3.3427,-1.06881 3.3427,-5.05731 z"
         transform="translate(-73.276514,-3.2640131)"
         id="path1541" />
    </g>
  </g>
</svg>
